<svg xmlns="http://www.w3.org/2000/svg" width="1200" height="800" viewBox="0 0 1200 800">
  <defs>
    <linearGradient id="g" x1="0" y1="0" x2="1" y2="1">
      <stop offset="0" stop-color="#F7F5F0"/>
      <stop offset="1" stop-color="#E8E0CF"/>
    </linearGradient>
    <linearGradient id="a" x1="0" y1="1" x2="1" y2="0">
      <stop offset="0" stop-color="#111111" stop-opacity="0.10"/>
      <stop offset="1" stop-color="#B08D57" stop-opacity="0.20"/>
    </linearGradient>
  </defs>
  <rect width="1200" height="800" fill="url(#g)"/>
  <rect x="90" y="90" width="1020" height="620" rx="44" fill="#ffffff"/>
  <rect x="90" y="90" width="1020" height="620" rx="44" fill="url(#a)"/>
  <rect x="150" y="150" width="900" height="500" rx="32" fill="#111111" fill-opacity="0.06"/>
  <text x="160" y="205" font-family="Georgia, 'Times New Roman', serif" font-size="44" fill="#111111" fill-opacity="0.85">
    Theme Preview
  </text>
  <text x="160" y="250" font-family="Arial, Helvetica, sans-serif" font-size="20" fill="#111111" fill-opacity="0.55">
    Placeholder image • Local MVP
  </text>
  <g>
    <rect x="160" y="290" width="880" height="340" rx="26" fill="#ffffff" fill-opacity="0.5"/>
    <rect x="185" y="315" width="320" height="290" rx="22" fill="#111111" fill-opacity="0.08"/>
    <rect x="525" y="315" width="515" height="24" rx="12" fill="#B08D57" fill-opacity="0.30"/>
    <rect x="525" y="355" width="465" height="18" rx="9" fill="#111111" fill-opacity="0.12"/>
    <rect x="525" y="385" width="410" height="18" rx="9" fill="#111111" fill-opacity="0.10"/>
    <rect x="525" y="425" width="260" height="46" rx="18" fill="#B08D57" fill-opacity="0.18"/>
  </g>
</svg>
